<?xml version="1.0" encoding="UTF-8" standalone="no"?>
<!-- Created with Inkscape (http://www.inkscape.org/) -->

<svg
   xmlns:dc="http://purl.org/dc/elements/1.1/"
   xmlns:cc="http://creativecommons.org/ns#"
   xmlns:rdf="http://www.w3.org/1999/02/22-rdf-syntax-ns#"
   xmlns:svg="http://www.w3.org/2000/svg"
   xmlns="http://www.w3.org/2000/svg"
   xmlns:sodipodi="http://sodipodi.sourceforge.net/DTD/sodipodi-0.dtd"
   xmlns:inkscape="http://www.inkscape.org/namespaces/inkscape"
   width="1122.5197"
   height="793.70081"
   viewBox="0 0 297 210"
   version="1.1"
   id="svg8"
   inkscape:version="0.92.3 (2405546, 2018-03-11)"
   sodipodi:docname="drawing.svg"
   inkscape:export-filename="/home/srdjan/My_Projects/phonebook-app/assets/favicon.png"
   inkscape:export-xdpi="96"
   inkscape:export-ydpi="96">
  <defs
     id="defs2" />
  <sodipodi:namedview
     id="base"
     pagecolor="#ffffff"
     bordercolor="#666666"
     borderopacity="1.0"
     inkscape:pageopacity="0.0"
     inkscape:pageshadow="2"
     inkscape:zoom="1.979899"
     inkscape:cx="604.49057"
     inkscape:cy="316.92601"
     inkscape:document-units="mm"
     inkscape:current-layer="g4979"
     showgrid="false"
     inkscape:pagecheckerboard="false"
     inkscape:window-width="1920"
     inkscape:window-height="1015"
     inkscape:window-x="0"
     inkscape:window-y="0"
     inkscape:window-maximized="1"
     units="px" />
  <metadata
     id="metadata5">
    <rdf:RDF>
      <cc:Work
         rdf:about="">
        <dc:format>image/svg+xml</dc:format>
        <dc:type
           rdf:resource="http://purl.org/dc/dcmitype/StillImage" />
        <dc:title></dc:title>
      </cc:Work>
    </rdf:RDF>
  </metadata>
  <g
     inkscape:label="Layer 1"
     inkscape:groupmode="layer"
     id="layer1"
     transform="translate(0,-87)">
    <g
       id="g4079"
       transform="matrix(0.06124614,0,0,0.06124614,14.574483,34.543125)">
      <g
         id="g4015" />
      <g
         id="g4017" />
      <g
         id="g4019" />
      <g
         id="g4021" />
      <g
         id="g4023" />
      <g
         id="g4025" />
      <g
         id="g4027" />
      <g
         id="g4029" />
      <g
         id="g4031" />
      <g
         id="g4033" />
      <g
         id="g4035" />
      <g
         id="g4037" />
      <g
         id="g4039" />
      <g
         id="g4041" />
      <g
         id="g4043" />
    </g>
    <g
       id="g4979"
       transform="matrix(0.45919078,0,0,0.45919078,86.978869,64.564054)">
      <g
         inkscape:export-ydpi="96"
         inkscape:export-xdpi="96"
         transform="matrix(0.06244085,0,0,0.06244085,31.674405,241.64941)"
         id="g3844">
        <path
           style="fill:#ff73af"
           inkscape:connector-curvature="0"
           d="m 354.01562,105.74213 h 69.71875 v 106.15235 h -69.71875 z m 0,0"
           id="path3806" />
        <path
           style="fill:#ffdf48"
           inkscape:connector-curvature="0"
           d="m 354.01562,211.89448 h 69.71875 v 106.15234 h -69.71875 z m 0,0"
           id="path3808" />
        <path
           style="fill:#ff9a00"
           inkscape:connector-curvature="0"
           d="m 354.01562,318.04682 h 69.71875 v 106.15235 h -69.71875 z m 0,0"
           id="path3812" />
        <path
           style="fill:#17a2b8;fill-opacity:1"
           inkscape:connector-curvature="0"
           d="M 0,0 H 371.03125 V 512 H 0 Z m 0,0"
           id="path3814" />
        <path
           style="fill:#17a2b8;fill-opacity:1"
           inkscape:connector-curvature="0"
           d="M 185.51953,0 H 371.03125 V 512 H 185.51953 Z m 0,0"
           id="path3816" />
        <path
           style="fill:#ffb74f"
           inkscape:connector-curvature="0"
           d="m 293.71875,319.05078 v 53.75781 H 77.320312 v -53.75781 c 0,-47.60156 38.718748,-86.33203 86.328128,-86.33203 h 43.74218 c 47.59766,0 86.32813,38.73047 86.32813,86.33203 z m 0,0"
           id="path3818" />
        <path
           style="fill:#ff9a00"
           inkscape:connector-curvature="0"
           d="m 293.71875,319.05078 v 53.75781 H 185.51953 V 232.71875 h 21.87109 c 47.59766,0 86.32813,38.73047 86.32813,86.33203 z m 0,0"
           id="path3820" />
        <path
           style="fill:#ffffff"
           inkscape:connector-curvature="0"
           d="m 254.78125,179.44922 c 0,38.19922 -31.07031,69.26953 -69.26172,69.26953 -38.19141,0 -69.25781,-31.07031 -69.25781,-69.26953 0,-38.1875 31.0664,-69.25781 69.25781,-69.25781 38.19141,0 69.26172,31.07031 69.26172,69.25781 z m 0,0"
           id="path3822" />
        <path
           style="fill:#cae8f9"
           inkscape:connector-curvature="0"
           d="m 254.78125,179.44922 c 0,38.19922 -31.07031,69.26953 -69.26172,69.26953 V 110.19141 c 38.19141,0 69.26172,31.07031 69.26172,69.25781 z m 0,0"
           id="path3824" />
      </g>
      <text
         inkscape:export-ydpi="96"
         inkscape:export-xdpi="96"
         xml:space="preserve"
         style="font-style:normal;font-variant:normal;font-weight:normal;font-stretch:normal;font-size:25.78449059px;line-height:1.25;font-family:sans-serif;-inkscape-font-specification:sans-serif;letter-spacing:0px;word-spacing:0px;fill:#343a40;fill-opacity:1;stroke:#343a40;stroke-width:0.64461225"
         x="61.539715"
         y="267.78134"
         id="text4894"><tspan
           sodipodi:role="line"
           id="tspan4892"
           x="61.539715"
           y="267.78134"
           style="font-style:normal;font-variant:normal;font-weight:normal;font-stretch:normal;font-family:sans-serif;-inkscape-font-specification:sans-serif;fill:#343a40;stroke:#343a40;stroke-width:0.64461225">Phonebook</tspan></text>
      <g
         id="g77"
         inkscape:export-xdpi="96"
         inkscape:export-ydpi="96">
        <rect
           y="311.33936"
           x="34.607807"
           height="18.438232"
           width="18.438232"
           id="rect64"
           style="opacity:0.98999999;fill:none;fill-opacity:1;stroke:none;stroke-width:0.22161001" />
        <g
           inkscape:export-ydpi="96"
           inkscape:export-xdpi="96"
           transform="matrix(0.03601217,0,0,0.03601217,36.197126,311.33936)"
           id="g62">
          <path
             style="fill:#ff73af"
             inkscape:connector-curvature="0"
             d="m 354.01562,105.74213 h 69.71875 v 106.15235 h -69.71875 z m 0,0"
             id="path44" />
          <path
             style="fill:#ffdf48"
             inkscape:connector-curvature="0"
             d="m 354.01562,211.89448 h 69.71875 v 106.15234 h -69.71875 z m 0,0"
             id="path46" />
          <path
             style="fill:#ff9a00"
             inkscape:connector-curvature="0"
             d="m 354.01562,318.04682 h 69.71875 v 106.15235 h -69.71875 z m 0,0"
             id="path48" />
          <path
             style="fill:#17a2b8;fill-opacity:1"
             inkscape:connector-curvature="0"
             d="M 0,0 H 371.03125 V 512 H 0 Z m 0,0"
             id="path50" />
          <path
             style="fill:#17a2b8;fill-opacity:1"
             inkscape:connector-curvature="0"
             d="M 185.51953,0 H 371.03125 V 512 H 185.51953 Z m 0,0"
             id="path52" />
          <path
             style="fill:#ffb74f"
             inkscape:connector-curvature="0"
             d="m 293.71875,319.05078 v 53.75781 H 77.320312 v -53.75781 c 0,-47.60156 38.718748,-86.33203 86.328128,-86.33203 h 43.74218 c 47.59766,0 86.32813,38.73047 86.32813,86.33203 z m 0,0"
             id="path54" />
          <path
             style="fill:#ff9a00"
             inkscape:connector-curvature="0"
             d="m 293.71875,319.05078 v 53.75781 H 185.51953 V 232.71875 h 21.87109 c 47.59766,0 86.32813,38.73047 86.32813,86.33203 z m 0,0"
             id="path56" />
          <path
             style="fill:#ffffff"
             inkscape:connector-curvature="0"
             d="m 254.78125,179.44922 c 0,38.19922 -31.07031,69.26953 -69.26172,69.26953 -38.19141,0 -69.25781,-31.07031 -69.25781,-69.26953 0,-38.1875 31.0664,-69.25781 69.25781,-69.25781 38.19141,0 69.26172,31.07031 69.26172,69.25781 z m 0,0"
             id="path58" />
          <path
             style="fill:#cae8f9"
             inkscape:connector-curvature="0"
             d="m 254.78125,179.44922 c 0,38.19922 -31.07031,69.26953 -69.26172,69.26953 V 110.19141 c 38.19141,0 69.26172,31.07031 69.26172,69.25781 z m 0,0"
             id="path60" />
        </g>
      </g>
    </g>
  </g>
</svg>
